Coordinates
version=1
nRows=17
nColumns=40
inDegrees=yes

Units are S.I. units (second, meters, Newtons, ...)
Angles are in degrees.

endheader
time	pelvis_tilt	pelvis_list	pelvis_rotation	pelvis_tx	pelvis_ty	pelvis_tz	hip_flexion_r	hip_adduction_r	hip_rotation_r	knee_angle_r	knee_angle_r_beta	ankle_angle_r	subtalar_angle_r	mtp_angle_r	hip_flexion_l	hip_adduction_l	hip_rotation_l	knee_angle_l	knee_angle_l_beta	ankle_angle_l	subtalar_angle_l	mtp_angle_l	lumbar_extension	lumbar_bending	lumbar_rotation	arm_flex_r	arm_add_r	arm_rot_r	elbow_flex_r	pro_sup_r	wrist_flex_r	wrist_dev_r	arm_flex_l	arm_add_l	arm_rot_l	elbow_flex_l	pro_sup_l	wrist_flex_l	wrist_dev_l
     40.07000000	     -3.27769834	     -6.18700709	      4.75338407	      0.90417221	      0.92209300	      0.47766572	     -1.49990047	      4.94333928	    -19.05300324	      9.01030115	      9.01030115	     15.81117553	      6.12193011	     -5.90038250	     30.77901439	     -7.86683713	     -1.88285229	     20.47959902	     20.47959902	      4.47664013	     -9.32898312	      8.36444188	     -8.57138652	      8.54531876	      4.08627292	     40.43358417	    -16.56961764	     -0.30483484	     90.77877788	     44.19215029	      0.00000000	      0.00000000	    -15.75223267	     -7.01924325	      5.39748075	     28.86327814	     44.61771140	      0.00000000	      0.00000000
     40.08371429	     -3.28804449	     -6.16605299	      4.43402348	      0.90571913	      0.92071335	      0.47604100	     -2.05068268	      4.80215907	    -18.68688546	      9.11162676	      9.11162676	     16.33623853	      6.16149413	     -5.93557210	     30.53521340	     -7.86073703	     -1.89151784	     21.45714840	     21.45714840	      3.87941504	     -9.83991598	      8.26224715	     -8.28573302	      8.25936132	      4.19393647	     40.61854227	    -16.36473570	     -0.23891260	     91.36358958	     44.17740404	      0.00000000	      0.00000000	    -16.11034074	     -7.14540779	      5.42607442	     28.74881633	     44.61165071	      0.00000000	      0.00000000
     40.09742857	     -3.40368416	     -6.22399068	      4.17340947	      0.90706415	      0.91919711	      0.47424545	     -2.31738983	      4.71040859	    -18.19343001	      9.50198863	      9.50198863	     16.99151488	      5.73575503	     -5.50791416	     30.46812771	     -7.80112626	     -1.43701576	     22.40291427	     22.40291427	      3.16000938	    -10.92847159	      7.70252704	     -8.01307041	      8.07524864	      4.05282260	     40.51015958	    -16.07337334	      0.05354350	     93.35953636	     44.12264279	      0.00000000	      0.00000000	    -16.45167129	     -7.22670692	      5.49276454	     28.81314740	     44.61017595	      0.00000000	      0.00000000
     40.11114286	     -3.42448054	     -6.13465276	      3.86185094	      0.90838331	      0.91807785	      0.47236215	     -2.61918672	      4.43935568	    -17.48736927	     10.05060656	     10.05060656	     17.91495311	      5.16440716	     -4.11898464	     30.14800667	     -7.61598800	     -1.12758344	     23.05868444	     23.05868444	      2.35478939	    -12.09231049	      6.37738034	     -7.88745946	      7.70714654	      4.60650795	     39.78965462	    -16.66905789	      0.03048786	     95.72579543	     44.10240769	      0.00000000	      0.00000000	    -16.28633581	     -7.49156030	      5.60053676	     29.00379151	     44.64034538	      0.00000000	      0.00000000
     40.12485714	     -3.39397526	     -5.99705091	      3.59378378	      0.90957848	      0.91719912	      0.47030417	     -3.01445304	      4.08830827	    -17.13457913	     10.46309010	     10.46309010	     18.29509474	      4.98339487	     -4.10616077	     29.96014384	     -7.43214375	     -1.03522907	     24.02755473	     24.02755473	      2.45666676	    -12.69749911	      6.11045016	     -7.77997637	      7.27201478	      4.44951219	     39.63481179	    -16.34478875	      0.16860458	     96.15870190	     44.08928588	      0.00000000	      0.00000000	    -16.22306697	     -7.64956494	      5.61317453	     28.91781772	     44.64424921	      0.00000000	      0.00000000
     40.13857143	     -3.55575574	     -5.86318765	      3.32602115	      0.91027590	      0.91627563	      0.46811289	     -2.76638567	      3.65694731	    -16.33588981	     11.65163539	     11.65163539	     18.98428486	      3.82308524	     -3.30981454	     29.95816504	     -7.13488269	     -0.63831397	     24.82053906	     24.82053906	      2.50813488	    -13.82415461	      5.73783422	     -7.61110125	      6.85659181	      4.39924907	     39.08726559	    -16.34189694	      0.43586455	     97.93844327	     44.05504766	      0.00000000	      0.00000000	    -15.84421087	     -7.75913187	      5.62928416	     28.70719335	     44.67545652	      0.00000000	      0.00000000
     40.15228571	     -3.54581771	     -5.73892959	      3.07776652	      0.91089868	      0.91585364	      0.46579954	     -2.72431274	      3.21189415	    -15.87191981	     12.75950928	     12.75950928	     19.34903026	      3.14795777	     -3.10159214	     29.82857902	     -6.91705018	     -0.47981612	     25.69889147	     25.69889147	      2.97573930	    -14.52956994	      5.40799975	     -7.64129729	      6.45427751	      4.26533495	     38.75572275	    -16.18355570	      0.59596365	     98.73729612	     44.03754481	      0.00000000	      0.00000000	    -15.37537772	     -7.88318095	      5.62413487	     28.61256597	     44.69590279	      0.00000000	      0.00000000
     40.16600000	     -3.63373382	     -5.52708092	      2.85033261	      0.91119719	      0.91570749	      0.46333024	     -2.38384475	      2.63513097	    -15.23250438	     14.17612325	     14.17612325	     19.61113508	      2.12424928	     -2.74694669	     29.70620053	     -6.58170901	     -0.40116944	     26.35140083	     26.35140083	      3.51777950	    -15.17459431	      5.23044838	     -7.60894347	      5.98149627	      4.23331409	     38.02199246	    -16.21782885	      0.82232231	     99.67918819	     44.01770980	      0.00000000	      0.00000000	    -14.59611971	     -8.05412829	      5.58429487	     28.45970437	     44.73173162	      0.00000000	      0.00000000
     40.17971429	     -3.60917177	     -5.36100691	      2.60845963	      0.91135011	      0.91598369	      0.46081479	     -2.03080388	      2.06411552	    -14.71736252	     15.79984319	     15.79984319	     19.69332680	      1.23243441	     -2.68837835	     29.42455900	     -6.32966703	     -0.42657341	     26.92181314	     26.92181314	      4.21294769	    -15.61165749	      5.03960206	     -7.73468657	      5.53992300	      4.15721879	     37.32190265	    -16.19878084	      1.02300675	    100.26006156	     44.00457088	      0.00000000	      0.00000000	    -13.73692559	     -8.20133235	      5.54897782	     28.37468126	     44.76340313	      0.00000000	      0.00000000
     40.19342857	     -3.67677756	     -5.20557559	      2.38612386	      0.91123090	      0.91642926	      0.45819528	     -1.34831813	      1.44999185	    -14.19449232	     17.79444030	     17.79444030	     19.57003195	      0.15743054	     -2.79808592	     29.16107645	     -6.08028159	     -0.54351704	     27.30169707	     27.30169707	      4.92987234	    -15.89708883	      4.92615798	     -7.78580363	      5.15564772	      4.10971093	     36.43378804	    -16.23628243	      1.25425196	    100.75709228	     43.99347405	      0.00000000	      0.00000000	    -12.68761128	     -8.36194121	      5.49878863	     28.27730650	     44.80139209	      0.00000000	      0.00000000
     40.20714286	     -3.68847564	     -5.06981579	      2.14037476	      0.91097220	      0.91716193	      0.45560920	     -0.53470728	      0.81452404	    -13.70660429	     20.10435833	     20.10435833	     19.24849933	     -0.92253057	     -3.16457550	     28.76191499	     -5.88186649	     -0.75887481	     27.54866479	     27.54866479	      5.66316328	    -16.04112490	      4.79443337	     -7.91570859	      4.79357815	      4.06839869	     35.44642959	    -16.23162557	      1.51166069	    101.01356591	     43.98676374	      0.00000000	      0.00000000	    -11.57368372	     -8.54503528	      5.43996005	     28.22881036	     44.83993720	      0.00000000	      0.00000000
     40.22085714	     -3.43017230	     -5.25175987	      2.06552987	      0.91080624	      0.91861726	      0.45292149	     -0.16553030	      0.55289080	    -13.61087669	     22.08057761	     22.08057761	     18.61411604	     -1.54737632	     -3.43234329	     28.00837510	     -5.94882883	     -0.71682631	     27.60147046	     27.60147046	      6.31954505	    -16.06605009	      4.59839709	     -8.32202250	      4.83644530	      3.75525713	     34.33761398	    -15.94299879	      1.84645100	    100.86527462	     43.98060085	      0.00000000	      0.00000000	    -10.38469403	     -8.72031144	      5.40218943	     28.47616038	     44.86877690	      0.00000000	      0.00000000
     40.23457143	     -3.73529466	     -4.80378244	      1.64404624	      0.90985565	      0.91897769	      0.45039580	      1.84543224	     -0.60370178	    -12.82689121	     25.91632304	     25.91632304	     17.97352904	     -3.25172291	     -4.41995855	     27.77054149	     -5.53037610	     -1.47943252	     27.58654605	     27.58654605	      6.89212233	    -15.91466455	      4.37779872	     -8.18141445	      4.09144578	      3.82479534	     33.29221154	    -16.04206453	      2.17855512	    100.79424029	     43.97844486	      0.00000000	      0.00000000	     -9.15405968	     -8.95419644	      5.30888242	     28.53034077	     44.91138606	      0.00000000	      0.00000000
     40.24828571	     -3.92734520	     -4.81431765	      1.41656657	      0.90892514	      0.91972163	      0.44790499	      3.44464781	     -1.02681941	    -12.03714564	     28.91641573	     28.91641573	     15.54783833	     -6.07366782	     -8.55433827	     27.43784447	     -5.49448521	     -1.82205747	     27.49890375	     27.49890375	      7.49330672	    -15.66061380	      4.33474369	     -8.13232298	      3.91946774	      4.34959533	     31.38680101	    -16.61060938	      2.07797154	    101.48731904	     44.03816995	      0.00000000	      0.00000000	     -6.99828738	     -8.97709942	      4.88877335	     27.34737014	     45.07055551	      0.00000000	      0.00000000
     40.26200000	     -3.97862748	     -4.69029361	      1.19729125	      0.90795818	      0.92059885	      0.44533700	      5.20208869	     -1.82005219	    -11.80775704	     32.65302569	     32.65302569	     14.39692143	     -7.28465779	     -9.19780490	     26.87976655	     -5.33670185	     -2.31112777	     27.29799361	     27.29799361	      7.95122966	    -15.37578590	      4.03394951	     -8.26514791	      3.61487318	      4.07540665	     30.17412272	    -16.36366247	      2.44793779	    100.85717596	     44.05118283	      0.00000000	      0.00000000	     -5.73214464	     -9.23721365	      4.79304338	     27.81606531	     45.11113270	      0.00000000	      0.00000000
     40.27571429	     -4.05313479	     -4.57595146	      0.99091236	      0.90677401	      0.92134508	      0.44283282	      7.16182030	     -2.55480436	    -11.44740010	     36.56875766	     36.56875766	     12.95287268	     -8.89177003	     -9.73495782	     26.36167813	     -5.18590952	     -2.78267102	     27.08273432	     27.08273432	      8.34058001	    -15.01512061	      3.68473825	     -8.34440797	      3.35625613	      3.84242697	     28.79419230	    -16.15580733	      2.87303488	    100.11895571	     44.06445587	      0.00000000	      0.00000000	     -4.37808218	     -9.53795450	      4.67509280	     28.31896257	     45.15587629	      0.00000000	      0.00000000
     40.28942857	     -4.16901310	     -4.53024296	      0.80445617	      0.90546424	      0.92194780	      0.44043668	      9.27550601	     -3.13690028	    -11.00671425	     40.51303814	     40.51303814	     11.24257572	    -10.82535210	    -10.14371925	     25.89226869	     -5.11030349	     -3.25118788	     26.83669553	     26.83669553	      8.70078051	    -14.58646136	      3.21722666	     -8.36377793	      3.18333702	      3.63800697	     27.30479443	    -16.04158357	      3.27014241	     99.19597891	     44.08694681	      0.00000000	      0.00000000	     -2.99889489	     -9.84938280	      4.51666745	     28.85576785	     45.20799967	      0.00000000	      0.00000000
